<svg xmlns="http://www.w3.org/2000/svg" viewBox="199 82 361 305" role="img" aria-label="Evolve logo mark">
  <defs>
    <linearGradient id="g" x1="0" y1="1" x2="1" y2="0">
      <stop offset="0%" stop-color="#0b2a76"/>
      <stop offset="55%" stop-color="#1aa8d8"/>
      <stop offset="100%" stop-color="#22e6dc"/>
    </linearGradient>
  </defs>

  <path d="M 447.0 375.5 L 443.0 375.5 L 387.0 326.5 L 363.0 324.5 L 350.0 321.5 L 347.5 317.0 L 342.0 313.5 L 335.0 316.5 L 329.0 316.5 L 322.0 313.5 L 316.0 316.5 L 287.0 315.5 L 282.0 314.5 L 279.5 312.0 L 280.5 310.0 L 277.0 304.5 L 274.0 303.5 L 267.0 308.5 L 263.0 308.5 L 255.5 303.0 L 255.5 299.0 L 253.0 296.5 L 250.0 295.5 L 244.0 298.5 L 236.5 291.0 L 238.5 287.0 L 237.5 284.0 L 232.0 280.5 L 226.0 280.5 L 214.5 265.0 L 210.5 249.0 L 213.5 230.0 L 221.5 218.0 L 224.5 200.0 L 232.5 186.0 L 246.0 174.5 L 256.0 170.5 L 265.0 156.5 L 279.0 148.5 L 295.0 144.5 L 311.0 145.5 L 314.0 144.5 L 319.0 138.5 L 330.0 132.5 L 342.0 129.5 L 360.0 128.5 L 373.0 130.5 L 383.0 135.5 L 398.0 131.5 L 422.0 134.5 L 436.0 140.5 L 438.5 143.0 L 436.5 147.0 L 437.5 150.0 L 443.0 153.5 L 473.5 131.0 L 473.5 125.0 L 460.5 117.0 L 463.0 114.5 L 546.0 93.5 L 548.5 98.0 L 530.5 165.0 L 528.0 167.5 L 521.5 158.0 L 514.0 152.5 L 454.0 197.5 L 374.0 197.5 L 365.0 201.5 L 352.0 201.5 L 337.5 214.0 L 337.5 220.0 L 343.0 223.5 L 377.0 222.5 L 390.0 212.5 L 400.0 212.5 L 410.0 218.5 L 448.0 218.5 L 458.0 212.5 L 502.0 177.5 L 513.5 189.0 L 521.5 203.0 L 520.5 212.0 L 530.5 228.0 L 533.5 239.0 L 533.5 258.0 L 531.5 265.0 L 525.5 275.0 L 509.5 287.0 L 504.5 303.0 L 496.0 312.5 L 486.0 318.5 L 473.0 322.5 L 461.0 323.5 L 453.5 328.0 L 448.5 345.0 L 449.5 373.0 L 447.0 375.5 Z" fill="url(#g)"/>
  <path d="M 244.0 283.5 L 236.5 276.0 L 338.5 184.0 L 339.5 173.0 L 341.5 169.0 L 347.0 163.5 L 354.0 160.5 L 363.0 160.5 L 370.0 162.5 L 374.0 165.5 L 410.0 165.5 L 431.0 149.5 L 432.5 153.0 L 438.5 158.0 L 412.0 177.5 L 374.0 177.5 L 368.0 172.5 L 363.0 170.5 L 354.0 171.5 L 348.5 177.0 L 347.5 185.0 L 348.5 190.0 L 304.0 228.5 L 244.0 283.5 Z M 315.0 176.5 L 310.0 170.5 L 303.5 172.0 L 309.5 166.0 L 309.5 154.0 L 312.0 150.5 L 314.5 151.0 L 313.5 171.0 L 315.0 176.5 Z M 362.0 191.5 L 357.0 189.5 L 355.5 187.0 L 355.5 183.0 L 359.0 179.5 L 364.0 179.5 L 367.5 183.0 L 367.5 188.0 L 362.0 191.5 Z M 247.0 232.5 L 242.5 232.0 L 273.5 203.0 L 273.5 197.0 L 279.0 192.5 L 283.0 192.5 L 286.5 196.0 L 287.5 199.0 L 286.5 203.0 L 283.0 206.5 L 277.0 206.5 L 247.0 232.5 Z M 261.0 298.5 L 260.5 296.0 L 256.0 291.5 L 253.5 291.0 L 331.0 219.5 L 332.5 223.0 L 337.5 228.0 L 261.0 298.5 Z M 398.0 232.5 L 393.0 232.5 L 389.5 230.0 L 388.5 226.0 L 392.0 221.5 L 397.0 221.5 L 400.5 224.0 L 401.5 229.0 L 398.0 232.5 Z M 285.0 306.5 L 284.5 304.0 L 280.0 299.5 L 277.5 299.0 L 349.0 233.5 L 380.0 233.5 L 384.0 238.5 L 391.0 242.5 L 399.0 242.5 L 408.0 236.5 L 480.0 234.5 L 490.0 231.5 L 498.0 223.5 L 497.5 229.0 L 494.5 233.0 L 505.0 237.5 L 511.5 245.0 L 511.0 246.5 L 507.0 242.5 L 499.0 238.5 L 485.0 237.5 L 460.0 240.5 L 457.5 244.0 L 455.5 251.0 L 453.0 253.5 L 445.0 254.5 L 443.5 251.0 L 437.0 244.5 L 430.0 242.5 L 422.0 244.5 L 417.5 248.0 L 415.0 252.5 L 344.0 252.5 L 285.0 306.5 Z M 433.0 263.5 L 427.0 263.5 L 423.5 260.0 L 423.5 255.0 L 426.0 252.5 L 433.0 252.5 L 435.5 255.0 L 436.5 258.0 L 433.0 263.5 Z M 353.0 313.5 L 346.5 309.0 L 375.5 282.0 L 376.5 276.0 L 382.0 271.5 L 388.0 271.5 L 392.5 276.0 L 393.5 279.0 L 397.0 280.5 L 417.0 280.5 L 418.0 281.5 L 443.0 281.5 L 459.0 273.5 L 450.5 283.0 L 450.5 288.0 L 454.0 291.5 L 459.0 293.5 L 472.5 294.0 L 466.0 295.5 L 448.0 295.5 L 441.0 292.5 L 435.0 286.5 L 392.0 284.5 L 388.0 288.5 L 380.0 287.5 L 353.0 313.5 Z" fill="#ffffff" fill-rule="evenodd"/>
</svg>
